<svg width="512" height="512" viewBox="0 0 512 512" fill="none" xmlns="http://www.w3.org/2000/svg">
<path d="M141.578 298.957C141.578 253.307 168.356 214.016 207.043 195.656C84.04 217.959 3.62601 308.337 3.62601 308.337C80.344 371.702 152.823 399.534 217.642 406.671C173.344 390.881 141.579 348.682 141.579 298.957H141.578Z" fill="black"/>
<path d="M508.375 299.223C434.217 233.103 363.5 203.356 299.673 195.144C341.216 212.306 370.421 253.133 370.421 300.872C370.421 349.185 340.418 390.38 298.106 407.204C425.799 388.721 508.374 299.223 508.374 299.223H508.375Z" fill="black"/>
<ellipse cx="256" cy="296.5" rx="91" ry="81.5" fill="black"/>
<ellipse cx="296.5" cy="264" rx="33.5" ry="32" fill="#A5D953"/>
<rect x="63" y="461.917" width="507" height="31.5693" transform="rotate(-44.2716 63 461.917)" fill="black"/>
</svg>
